<svg width="12" height="14" viewBox="0 0 12 14" fill="none" xmlns="http://www.w3.org/2000/svg">
<path d="M9.80117 9.41724L9.80222 9.41829C10.2932 9.90737 10.6843 10.4873 10.9538 11.1257L11.4145 10.9312L10.9541 11.1263C11.17 11.6358 11.3038 12.1697 11.3541 12.7188H11.1656C11.0512 11.5224 10.5295 10.4111 9.66959 9.55113C8.6899 8.57145 7.38617 8.03125 6.00041 8.03125C4.61464 8.03125 3.31091 8.57145 2.33123 9.55113C1.4713 10.4111 0.949635 11.5224 0.835214 12.7188H0.646445C0.69654 12.1718 0.831295 11.6352 1.04657 11.1282L1.04681 11.1277C1.31697 10.4893 1.7082 9.90921 2.1989 9.41955L2.19978 9.41867C2.69323 8.92379 3.26715 8.53698 3.90726 8.26693L3.90896 8.26621L3.91516 8.26377C3.92487 8.25983 3.9389 8.25383 3.95526 8.24565L4.69273 7.87691L4.02485 7.39342C3.17569 6.7787 2.62541 5.78128 2.62541 4.65625C2.62541 2.79177 4.13592 1.28125 6.00041 1.28125C7.86489 1.28125 9.37541 2.79177 9.37541 4.65625C9.37541 5.78137 8.82507 6.77854 7.97639 7.39155L7.3072 7.87491L8.04555 8.24409C8.06192 8.25227 8.07595 8.25826 8.08566 8.26221L8.09192 8.26468L8.09305 8.26515C8.73145 8.53532 9.31151 8.92655 9.80117 9.41724ZM11.1878 13.0855L11.1877 13.0839L11.1878 13.0855ZM0.625257 13.1031L0.625312 13.1003L0.625257 13.1031ZM8.10297 8.26895C8.10402 8.26934 8.1032 8.26903 8.10212 8.26862L8.10297 8.26895ZM3.74685 6.9098C4.34833 7.51128 5.15047 7.84375 6.00041 7.84375C6.85034 7.84375 7.65248 7.51128 8.25396 6.9098C8.85544 6.30832 9.18791 5.50619 9.18791 4.65625C9.18791 3.80631 8.85544 3.00418 8.25396 2.4027C7.65248 1.80122 6.85034 1.46875 6.00041 1.46875C5.15047 1.46875 4.34833 1.80122 3.74685 2.4027C3.14537 3.00418 2.81291 3.80631 2.81291 4.65625C2.81291 5.50619 3.14537 6.30832 3.74685 6.9098Z" fill="white" stroke="black"/>
</svg>
